<mxfile modified="2022-05-24T06:09:11.609Z" host="app.diagrams.net" agent="5.0 (Windows NT 10.0; Win64; x64) AppleWebKit/537.36 (KHTML, like Gecko) Chrome/101.0.4951.67 Safari/537.36" etag="c8COlq_MzEK7N7847FRC" version="18.1.1" type="github">
  <diagram id="7gcUSTIZ7YSJ5vT40chW" name="Page-1">
    <mxGraphModel dx="1108" dy="482" grid="1" gridSize="10" guides="1" tooltips="1" connect="1" arrows="1" fold="1" page="1" pageScale="1" pageWidth="1169" pageHeight="827" math="0" shadow="0">
      <root>
        <mxCell id="0" />
        <mxCell id="1" parent="0" />
        <mxCell id="SZY12_XKgGBlkoAp8IEY-7" value="&lt;b&gt;Azure APIM&amp;nbsp;&lt;/b&gt;" style="aspect=fixed;html=1;perimeter=none;align=center;shadow=0;dashed=0;image;fontSize=12;image=img/lib/mscae/App_Service_API_Apps.svg;" parent="1" vertex="1">
          <mxGeometry x="741" y="220" width="50" height="43" as="geometry" />
        </mxCell>
        <mxCell id="SZY12_XKgGBlkoAp8IEY-8" value="Azure Function&lt;br&gt;(Consumption Plan)" style="aspect=fixed;html=1;perimeter=none;align=center;shadow=0;dashed=0;image;fontSize=12;image=img/lib/mscae/Functions.svg;" parent="1" vertex="1">
          <mxGeometry x="560" y="224.5" width="50" height="46" as="geometry" />
        </mxCell>
        <mxCell id="0S4KNCLKfGQNIOkUdKm9-7" style="edgeStyle=none;rounded=0;orthogonalLoop=1;jettySize=auto;html=1;entryX=0.04;entryY=0.416;entryDx=0;entryDy=0;entryPerimeter=0;" parent="1" source="0S4KNCLKfGQNIOkUdKm9-2" target="0S4KNCLKfGQNIOkUdKm9-4" edge="1">
          <mxGeometry relative="1" as="geometry" />
        </mxCell>
        <mxCell id="0S4KNCLKfGQNIOkUdKm9-2" value="Micros- ip1" style="shape=image;verticalLabelPosition=bottom;labelBackgroundColor=#ffffff;verticalAlign=top;aspect=fixed;imageAspect=0;image=data:image/svg+xml,PHN2ZyB4bWxuczpjYz0iaHR0cDovL2NyZWF0aXZlY29tbW9ucy5vcmcvbnMjIiB4bWxuczpkYz0iaHR0cDovL3B1cmwub3JnL2RjL2VsZW1lbnRzLzEuMS8iIHhtbG5zOmlua3NjYXBlPSJodHRwOi8vd3d3Lmlua3NjYXBlLm9yZy9uYW1lc3BhY2VzL2lua3NjYXBlIiB4bWxuczpyZGY9Imh0dHA6Ly93d3cudzMub3JnLzE5OTkvMDIvMjItcmRmLXN5bnRheC1ucyMiIHhtbG5zOnNvZGlwb2RpPSJodHRwOi8vc29kaXBvZGkuc291cmNlZm9yZ2UubmV0L0RURC9zb2RpcG9kaS0wLmR0ZCIgeG1sbnM6c3ZnPSJodHRwOi8vd3d3LnczLm9yZy8yMDAwL3N2ZyIgeG1sbnM9Imh0dHA6Ly93d3cudzMub3JnLzIwMDAvc3ZnIiB4bWxuczp4bGluaz0iaHR0cDovL3d3dy53My5vcmcvMTk5OS94bGluayIgdmVyc2lvbj0iMS4xIiBpZD0ic3ZnMTM4MDg0IiBpbmtzY2FwZTp2ZXJzaW9uPSIwLjkyLjMgKDI0MDU1NDYsIDIwMTgtMDMtMTEpIiBzb2RpcG9kaTpkb2NuYW1lPSJhcHBsaWNhdGlvbl9zZXJ2ZXJzLnN2ZyIgeD0iMHB4IiB5PSIwcHgiIHZpZXdCb3g9IjAgMCA0Ny43NiA0MC4zOCIgc3R5bGU9ImVuYWJsZS1iYWNrZ3JvdW5kOm5ldyAwIDAgNDcuNzYgNDAuMzg7IiB4bWw6c3BhY2U9InByZXNlcnZlIj4mI3hhOzxzb2RpcG9kaTpuYW1lZHZpZXcgYm9yZGVyY29sb3I9IiM2NjY2NjYiIGJvcmRlcm9wYWNpdHk9IjEiIGZpdC1tYXJnaW4tYm90dG9tPSIwIiBmaXQtbWFyZ2luLWxlZnQ9IjAiIGZpdC1tYXJnaW4tcmlnaHQ9IjAiIGZpdC1tYXJnaW4tdG9wPSIwIiBncmlkdG9sZXJhbmNlPSIxMCIgZ3VpZGV0b2xlcmFuY2U9IjEwIiBpZD0ibmFtZWR2aWV3MTM4MDg2IiBpbmtzY2FwZTpjdXJyZW50LWxheWVyPSJzdmcxMzgwODQiIGlua3NjYXBlOmN4PSIzMS44Mzk0NTUiIGlua3NjYXBlOmN5PSIyNi45MTc4NTYiIGlua3NjYXBlOnBhZ2VvcGFjaXR5PSIwIiBpbmtzY2FwZTpwYWdlc2hhZG93PSIyIiBpbmtzY2FwZTp3aW5kb3ctaGVpZ2h0PSIxMDE3IiBpbmtzY2FwZTp3aW5kb3ctbWF4aW1pemVkPSIxIiBpbmtzY2FwZTp3aW5kb3ctd2lkdGg9IjE5MjAiIGlua3NjYXBlOndpbmRvdy14PSItOCIgaW5rc2NhcGU6d2luZG93LXk9Ii04IiBpbmtzY2FwZTp6b29tPSIxNi4xMDIwMTUiIG9iamVjdHRvbGVyYW5jZT0iMTAiIHBhZ2Vjb2xvcj0iI2ZmZmZmZiIgc2hvd2dyaWQ9ImZhbHNlIj4mI3hhOwk8L3NvZGlwb2RpOm5hbWVkdmlldz4mI3hhOzxnIGlkPSJnMTM4MDgyIj4mI3hhOwk8dGl0bGUgaWQ9InRpdGxlMTM4MDc1Ij5QYWdlLTE8L3RpdGxlPiYjeGE7CTxnIGlkPSJzaGFwZTg2MjgtMSI+JiN4YTsJCTx0aXRsZSBpZD0idGl0bGUxMzgwNzciPkFwcGxpY2F0aW9uIFNlcnZlcnM8L3RpdGxlPiYjeGE7CQk8cGF0aCBpZD0icGF0aDEzODA3OSIgaW5rc2NhcGU6Y29ubmVjdG9yLWN1cnZhdHVyZT0iMCIgc3R5bGU9ImZpbGw6IzNGNTc2NTsiIGQ9Ik00Ny43MSwxMy43NXYtMS4wM2wtNS43Ny0zLjM1bC0xLjU5LDAuNDd2MC40MSAgICBsLTcuNzctNC41M2wtMi4yMiwwLjc3djAuMjZMMTguNzMsMEwwLjg3LDUuNzJ2MS45TDAsNy44OHYyNi41OGwxOC4wNiw1LjkybDEyLjMtNy4xNnYwLjQyaDEuNjVsOC4zNC00Ljg1djAuMTFoMS4yM2w2LjE4LTMuNjYgICAgVjEzLjhMNDcuNzEsMTMuNzV6IE0xOS4zNSwxLjM5bDExLjAxLDYuMDN2MC44MkwxOS4zNSwyLjYzVjEuMzl6IE0xOC43OCw1LjJsMTEuNTgsNC45djEuNjRMMTguNzgsNy41N1Y1LjJ6IE0xOC43OCwxMC4yNSAgICBsMTEuNTgsMy4yNXYxLjU5bC0xMS41OC0yLjM3VjEwLjI1eiBNMTguNzgsMTUuMjVsMTEuNTgsMS43djEuNDlsLTExLjU4LTAuNzJWMTUuMjV6IE0xOC43OCwyMC40NWwxMS41OC0wLjIxdjEuNjVsLTExLjU4LDAuOTMgICAgVjIwLjQ1eiBNMTguNzgsMjUuNWwxMS41OC0xLjg2djEuNmwtMTEuNTgsMi42M1YyNS41eiBNMTguNzgsMzAuNDlsMTEuNTgtMy40djEuNWwtMTEuNTgsNC40M1YzMC40OXogTTE4Ljc4LDM4LjA3VjM1LjcgICAgbDExLjU4LTUuMzF2MS42NUwxOC43OCwzOC4wN3ogTTMyLjk5LDYuNzVsNy4zNiw0LjAydjAuNTFsLTcuMzYtMy43MVY2Ljc1eiBNMzIuNTgsOS4zMmw3Ljc3LDMuMjV2MS4yM2wtNy43Ny0yLjc4VjkuMzJ6ICAgICBNMzIuNTgsMTIuODNsNy43NywyLjIxdjEuMDhsLTcuNzctMS42NVYxMi44M3ogTTMyLjU4LDE2LjI4bDcuNzcsMS4xM3YxLjAzbC03Ljc3LTAuNTFWMTYuMjh6IE0zMi41OCwxOS44M2w3Ljc3LTAuMTV2MS4xOCAgICBsLTcuNzcsMC41N1YxOS44M3ogTTMyLjU4LDIzLjMzbDcuNzctMS4xOHYxLjAzbC03Ljc3LDEuNzVWMjMuMzN6IE0zMi41OCwyNi43OGw3Ljc3LTIuMzZ2MS4xM2wtNy43NywyLjk5VjI2Ljc4eiBNMzIuNTgsMzEuOTQgICAgdi0xLjU1bDcuNzctMy42MXYxLjE0TDMyLjU4LDMxLjk0eiBNNDIuMjUsOS45OWw1LjMsMi45OXYwLjM2bC01LjMtMi43M1Y5Ljk5eiBNNDcuNzEsMjQuNzhsLTUuNzcsMi45OHYtMS4xM2w1Ljc3LTIuNjhWMjQuNzh6ICAgICBNNDcuNzEsMjMuMTNsLTUuNzcsMi4yMXYtMS4yM2w1Ljc3LTEuNzZWMjMuMTN6IE00Ny43MSwyMS41M2wtNS43NywxLjI5di0xLjE5bDUuNzctMC44N1YyMS41M3ogTTQ3LjcxLDE5LjkzbC01Ljc3LDAuNDJ2LTEuMTQgICAgbDUuNzctMC4wNVYxOS45M3ogTTQ3LjcxLDE4LjM0bC01Ljc3LTAuNDF2LTEuMTRsNS43NywwLjc3VjE4LjM0eiBNNDcuNzEsMTYuNjlsLTUuNzctMS4xOXYtMS4xM2w1Ljc3LDEuNTVWMTYuNjl6IE00Ny43MSwxNS4wOSAgICBsLTUuNzctMi4wMVYxMS45bDUuNzcsMi40N1YxNS4wOXoiLz4mI3hhOwk8L2c+JiN4YTs8L2c+JiN4YTs8L3N2Zz4=;fontStyle=1" parent="1" vertex="1">
          <mxGeometry x="150" y="144" width="58" height="48.33" as="geometry" />
        </mxCell>
        <mxCell id="0S4KNCLKfGQNIOkUdKm9-15" style="edgeStyle=orthogonalEdgeStyle;rounded=0;orthogonalLoop=1;jettySize=auto;html=1;exitX=0.02;exitY=0.489;exitDx=0;exitDy=0;exitPerimeter=0;" parent="1" source="SZY12_XKgGBlkoAp8IEY-8" edge="1">
          <mxGeometry relative="1" as="geometry">
            <mxPoint x="550" y="245.25" as="sourcePoint" />
            <mxPoint x="410" y="246" as="targetPoint" />
          </mxGeometry>
        </mxCell>
        <mxCell id="0S4KNCLKfGQNIOkUdKm9-22" value="Call SOAP Service" style="edgeLabel;html=1;align=center;verticalAlign=middle;resizable=0;points=[];" parent="0S4KNCLKfGQNIOkUdKm9-15" vertex="1" connectable="0">
          <mxGeometry x="0.2154" y="-2" relative="1" as="geometry">
            <mxPoint as="offset" />
          </mxGeometry>
        </mxCell>
        <mxCell id="0S4KNCLKfGQNIOkUdKm9-4" value="&lt;ul&gt;&lt;li&gt;&lt;b&gt;&amp;nbsp;SysHealthCheck&lt;/b&gt;&lt;/li&gt;&lt;li&gt;&lt;b&gt;&amp;nbsp; &amp;nbsp; GetCurrentValues&lt;/b&gt;&lt;/li&gt;&lt;li&gt;&lt;b&gt;GetFinalValues&lt;/b&gt;&lt;/li&gt;&lt;/ul&gt;" style="sketch=0;html=1;dashed=0;whitespace=wrap;fillColor=#2875E2;strokeColor=#ffffff;points=[[0.005,0.63,0],[0.1,0.2,0],[0.9,0.2,0],[0.5,0,0],[0.995,0.63,0],[0.72,0.99,0],[0.5,1,0],[0.28,0.99,0]];shape=mxgraph.kubernetes.icon;prIcon=api;labelPosition=center;verticalLabelPosition=top;align=center;verticalAlign=bottom;" parent="1" vertex="1">
          <mxGeometry x="370" y="220" width="50" height="50.5" as="geometry" />
        </mxCell>
        <mxCell id="0S4KNCLKfGQNIOkUdKm9-6" style="edgeStyle=none;rounded=0;orthogonalLoop=1;jettySize=auto;html=1;exitX=1;exitY=0.5;exitDx=0;exitDy=0;entryX=0.14;entryY=0.832;entryDx=0;entryDy=0;entryPerimeter=0;" parent="1" source="0S4KNCLKfGQNIOkUdKm9-5" target="0S4KNCLKfGQNIOkUdKm9-4" edge="1">
          <mxGeometry relative="1" as="geometry" />
        </mxCell>
        <mxCell id="0S4KNCLKfGQNIOkUdKm9-5" value="Micros-ip2" style="shape=image;verticalLabelPosition=bottom;labelBackgroundColor=#ffffff;verticalAlign=top;aspect=fixed;imageAspect=0;image=data:image/svg+xml,PHN2ZyB4bWxuczpjYz0iaHR0cDovL2NyZWF0aXZlY29tbW9ucy5vcmcvbnMjIiB4bWxuczpkYz0iaHR0cDovL3B1cmwub3JnL2RjL2VsZW1lbnRzLzEuMS8iIHhtbG5zOmlua3NjYXBlPSJodHRwOi8vd3d3Lmlua3NjYXBlLm9yZy9uYW1lc3BhY2VzL2lua3NjYXBlIiB4bWxuczpyZGY9Imh0dHA6Ly93d3cudzMub3JnLzE5OTkvMDIvMjItcmRmLXN5bnRheC1ucyMiIHhtbG5zOnNvZGlwb2RpPSJodHRwOi8vc29kaXBvZGkuc291cmNlZm9yZ2UubmV0L0RURC9zb2RpcG9kaS0wLmR0ZCIgeG1sbnM6c3ZnPSJodHRwOi8vd3d3LnczLm9yZy8yMDAwL3N2ZyIgeG1sbnM9Imh0dHA6Ly93d3cudzMub3JnLzIwMDAvc3ZnIiB4bWxuczp4bGluaz0iaHR0cDovL3d3dy53My5vcmcvMTk5OS94bGluayIgdmVyc2lvbj0iMS4xIiBpZD0ic3ZnMTM4MDg0IiBpbmtzY2FwZTp2ZXJzaW9uPSIwLjkyLjMgKDI0MDU1NDYsIDIwMTgtMDMtMTEpIiBzb2RpcG9kaTpkb2NuYW1lPSJhcHBsaWNhdGlvbl9zZXJ2ZXJzLnN2ZyIgeD0iMHB4IiB5PSIwcHgiIHZpZXdCb3g9IjAgMCA0Ny43NiA0MC4zOCIgc3R5bGU9ImVuYWJsZS1iYWNrZ3JvdW5kOm5ldyAwIDAgNDcuNzYgNDAuMzg7IiB4bWw6c3BhY2U9InByZXNlcnZlIj4mI3hhOzxzb2RpcG9kaTpuYW1lZHZpZXcgYm9yZGVyY29sb3I9IiM2NjY2NjYiIGJvcmRlcm9wYWNpdHk9IjEiIGZpdC1tYXJnaW4tYm90dG9tPSIwIiBmaXQtbWFyZ2luLWxlZnQ9IjAiIGZpdC1tYXJnaW4tcmlnaHQ9IjAiIGZpdC1tYXJnaW4tdG9wPSIwIiBncmlkdG9sZXJhbmNlPSIxMCIgZ3VpZGV0b2xlcmFuY2U9IjEwIiBpZD0ibmFtZWR2aWV3MTM4MDg2IiBpbmtzY2FwZTpjdXJyZW50LWxheWVyPSJzdmcxMzgwODQiIGlua3NjYXBlOmN4PSIzMS44Mzk0NTUiIGlua3NjYXBlOmN5PSIyNi45MTc4NTYiIGlua3NjYXBlOnBhZ2VvcGFjaXR5PSIwIiBpbmtzY2FwZTpwYWdlc2hhZG93PSIyIiBpbmtzY2FwZTp3aW5kb3ctaGVpZ2h0PSIxMDE3IiBpbmtzY2FwZTp3aW5kb3ctbWF4aW1pemVkPSIxIiBpbmtzY2FwZTp3aW5kb3ctd2lkdGg9IjE5MjAiIGlua3NjYXBlOndpbmRvdy14PSItOCIgaW5rc2NhcGU6d2luZG93LXk9Ii04IiBpbmtzY2FwZTp6b29tPSIxNi4xMDIwMTUiIG9iamVjdHRvbGVyYW5jZT0iMTAiIHBhZ2Vjb2xvcj0iI2ZmZmZmZiIgc2hvd2dyaWQ9ImZhbHNlIj4mI3hhOwk8L3NvZGlwb2RpOm5hbWVkdmlldz4mI3hhOzxnIGlkPSJnMTM4MDgyIj4mI3hhOwk8dGl0bGUgaWQ9InRpdGxlMTM4MDc1Ij5QYWdlLTE8L3RpdGxlPiYjeGE7CTxnIGlkPSJzaGFwZTg2MjgtMSI+JiN4YTsJCTx0aXRsZSBpZD0idGl0bGUxMzgwNzciPkFwcGxpY2F0aW9uIFNlcnZlcnM8L3RpdGxlPiYjeGE7CQk8cGF0aCBpZD0icGF0aDEzODA3OSIgaW5rc2NhcGU6Y29ubmVjdG9yLWN1cnZhdHVyZT0iMCIgc3R5bGU9ImZpbGw6IzNGNTc2NTsiIGQ9Ik00Ny43MSwxMy43NXYtMS4wM2wtNS43Ny0zLjM1bC0xLjU5LDAuNDd2MC40MSAgICBsLTcuNzctNC41M2wtMi4yMiwwLjc3djAuMjZMMTguNzMsMEwwLjg3LDUuNzJ2MS45TDAsNy44OHYyNi41OGwxOC4wNiw1LjkybDEyLjMtNy4xNnYwLjQyaDEuNjVsOC4zNC00Ljg1djAuMTFoMS4yM2w2LjE4LTMuNjYgICAgVjEzLjhMNDcuNzEsMTMuNzV6IE0xOS4zNSwxLjM5bDExLjAxLDYuMDN2MC44MkwxOS4zNSwyLjYzVjEuMzl6IE0xOC43OCw1LjJsMTEuNTgsNC45djEuNjRMMTguNzgsNy41N1Y1LjJ6IE0xOC43OCwxMC4yNSAgICBsMTEuNTgsMy4yNXYxLjU5bC0xMS41OC0yLjM3VjEwLjI1eiBNMTguNzgsMTUuMjVsMTEuNTgsMS43djEuNDlsLTExLjU4LTAuNzJWMTUuMjV6IE0xOC43OCwyMC40NWwxMS41OC0wLjIxdjEuNjVsLTExLjU4LDAuOTMgICAgVjIwLjQ1eiBNMTguNzgsMjUuNWwxMS41OC0xLjg2djEuNmwtMTEuNTgsMi42M1YyNS41eiBNMTguNzgsMzAuNDlsMTEuNTgtMy40djEuNWwtMTEuNTgsNC40M1YzMC40OXogTTE4Ljc4LDM4LjA3VjM1LjcgICAgbDExLjU4LTUuMzF2MS42NUwxOC43OCwzOC4wN3ogTTMyLjk5LDYuNzVsNy4zNiw0LjAydjAuNTFsLTcuMzYtMy43MVY2Ljc1eiBNMzIuNTgsOS4zMmw3Ljc3LDMuMjV2MS4yM2wtNy43Ny0yLjc4VjkuMzJ6ICAgICBNMzIuNTgsMTIuODNsNy43NywyLjIxdjEuMDhsLTcuNzctMS42NVYxMi44M3ogTTMyLjU4LDE2LjI4bDcuNzcsMS4xM3YxLjAzbC03Ljc3LTAuNTFWMTYuMjh6IE0zMi41OCwxOS44M2w3Ljc3LTAuMTV2MS4xOCAgICBsLTcuNzcsMC41N1YxOS44M3ogTTMyLjU4LDIzLjMzbDcuNzctMS4xOHYxLjAzbC03Ljc3LDEuNzVWMjMuMzN6IE0zMi41OCwyNi43OGw3Ljc3LTIuMzZ2MS4xM2wtNy43NywyLjk5VjI2Ljc4eiBNMzIuNTgsMzEuOTQgICAgdi0xLjU1bDcuNzctMy42MXYxLjE0TDMyLjU4LDMxLjk0eiBNNDIuMjUsOS45OWw1LjMsMi45OXYwLjM2bC01LjMtMi43M1Y5Ljk5eiBNNDcuNzEsMjQuNzhsLTUuNzcsMi45OHYtMS4xM2w1Ljc3LTIuNjhWMjQuNzh6ICAgICBNNDcuNzEsMjMuMTNsLTUuNzcsMi4yMXYtMS4yM2w1Ljc3LTEuNzZWMjMuMTN6IE00Ny43MSwyMS41M2wtNS43NywxLjI5di0xLjE5bDUuNzctMC44N1YyMS41M3ogTTQ3LjcxLDE5LjkzbC01Ljc3LDAuNDJ2LTEuMTQgICAgbDUuNzctMC4wNVYxOS45M3ogTTQ3LjcxLDE4LjM0bC01Ljc3LTAuNDF2LTEuMTRsNS43NywwLjc3VjE4LjM0eiBNNDcuNzEsMTYuNjlsLTUuNzctMS4xOXYtMS4xM2w1Ljc3LDEuNTVWMTYuNjl6IE00Ny43MSwxNS4wOSAgICBsLTUuNzctMi4wMVYxMS45bDUuNzcsMi40N1YxNS4wOXoiLz4mI3hhOwk8L2c+JiN4YTs8L2c+JiN4YTs8L3N2Zz4=;fontStyle=1" parent="1" vertex="1">
          <mxGeometry x="147" y="269" width="58" height="48.33" as="geometry" />
        </mxCell>
        <mxCell id="0S4KNCLKfGQNIOkUdKm9-13" style="edgeStyle=none;rounded=0;orthogonalLoop=1;jettySize=auto;html=1;entryX=0.28;entryY=0.99;entryDx=0;entryDy=0;entryPerimeter=0;exitX=0.397;exitY=0.573;exitDx=0;exitDy=0;exitPerimeter=0;" parent="1" source="0S4KNCLKfGQNIOkUdKm9-9" target="0S4KNCLKfGQNIOkUdKm9-4" edge="1">
          <mxGeometry relative="1" as="geometry">
            <mxPoint x="200" y="470" as="sourcePoint" />
          </mxGeometry>
        </mxCell>
        <mxCell id="0S4KNCLKfGQNIOkUdKm9-9" value="Micros-ipN" style="shape=image;verticalLabelPosition=bottom;labelBackgroundColor=#ffffff;verticalAlign=top;aspect=fixed;imageAspect=0;image=data:image/svg+xml,PHN2ZyB4bWxuczpjYz0iaHR0cDovL2NyZWF0aXZlY29tbW9ucy5vcmcvbnMjIiB4bWxuczpkYz0iaHR0cDovL3B1cmwub3JnL2RjL2VsZW1lbnRzLzEuMS8iIHhtbG5zOmlua3NjYXBlPSJodHRwOi8vd3d3Lmlua3NjYXBlLm9yZy9uYW1lc3BhY2VzL2lua3NjYXBlIiB4bWxuczpyZGY9Imh0dHA6Ly93d3cudzMub3JnLzE5OTkvMDIvMjItcmRmLXN5bnRheC1ucyMiIHhtbG5zOnNvZGlwb2RpPSJodHRwOi8vc29kaXBvZGkuc291cmNlZm9yZ2UubmV0L0RURC9zb2RpcG9kaS0wLmR0ZCIgeG1sbnM6c3ZnPSJodHRwOi8vd3d3LnczLm9yZy8yMDAwL3N2ZyIgeG1sbnM9Imh0dHA6Ly93d3cudzMub3JnLzIwMDAvc3ZnIiB4bWxuczp4bGluaz0iaHR0cDovL3d3dy53My5vcmcvMTk5OS94bGluayIgdmVyc2lvbj0iMS4xIiBpZD0ic3ZnMTM4MDg0IiBpbmtzY2FwZTp2ZXJzaW9uPSIwLjkyLjMgKDI0MDU1NDYsIDIwMTgtMDMtMTEpIiBzb2RpcG9kaTpkb2NuYW1lPSJhcHBsaWNhdGlvbl9zZXJ2ZXJzLnN2ZyIgeD0iMHB4IiB5PSIwcHgiIHZpZXdCb3g9IjAgMCA0Ny43NiA0MC4zOCIgc3R5bGU9ImVuYWJsZS1iYWNrZ3JvdW5kOm5ldyAwIDAgNDcuNzYgNDAuMzg7IiB4bWw6c3BhY2U9InByZXNlcnZlIj4mI3hhOzxzb2RpcG9kaTpuYW1lZHZpZXcgYm9yZGVyY29sb3I9IiM2NjY2NjYiIGJvcmRlcm9wYWNpdHk9IjEiIGZpdC1tYXJnaW4tYm90dG9tPSIwIiBmaXQtbWFyZ2luLWxlZnQ9IjAiIGZpdC1tYXJnaW4tcmlnaHQ9IjAiIGZpdC1tYXJnaW4tdG9wPSIwIiBncmlkdG9sZXJhbmNlPSIxMCIgZ3VpZGV0b2xlcmFuY2U9IjEwIiBpZD0ibmFtZWR2aWV3MTM4MDg2IiBpbmtzY2FwZTpjdXJyZW50LWxheWVyPSJzdmcxMzgwODQiIGlua3NjYXBlOmN4PSIzMS44Mzk0NTUiIGlua3NjYXBlOmN5PSIyNi45MTc4NTYiIGlua3NjYXBlOnBhZ2VvcGFjaXR5PSIwIiBpbmtzY2FwZTpwYWdlc2hhZG93PSIyIiBpbmtzY2FwZTp3aW5kb3ctaGVpZ2h0PSIxMDE3IiBpbmtzY2FwZTp3aW5kb3ctbWF4aW1pemVkPSIxIiBpbmtzY2FwZTp3aW5kb3ctd2lkdGg9IjE5MjAiIGlua3NjYXBlOndpbmRvdy14PSItOCIgaW5rc2NhcGU6d2luZG93LXk9Ii04IiBpbmtzY2FwZTp6b29tPSIxNi4xMDIwMTUiIG9iamVjdHRvbGVyYW5jZT0iMTAiIHBhZ2Vjb2xvcj0iI2ZmZmZmZiIgc2hvd2dyaWQ9ImZhbHNlIj4mI3hhOwk8L3NvZGlwb2RpOm5hbWVkdmlldz4mI3hhOzxnIGlkPSJnMTM4MDgyIj4mI3hhOwk8dGl0bGUgaWQ9InRpdGxlMTM4MDc1Ij5QYWdlLTE8L3RpdGxlPiYjeGE7CTxnIGlkPSJzaGFwZTg2MjgtMSI+JiN4YTsJCTx0aXRsZSBpZD0idGl0bGUxMzgwNzciPkFwcGxpY2F0aW9uIFNlcnZlcnM8L3RpdGxlPiYjeGE7CQk8cGF0aCBpZD0icGF0aDEzODA3OSIgaW5rc2NhcGU6Y29ubmVjdG9yLWN1cnZhdHVyZT0iMCIgc3R5bGU9ImZpbGw6IzNGNTc2NTsiIGQ9Ik00Ny43MSwxMy43NXYtMS4wM2wtNS43Ny0zLjM1bC0xLjU5LDAuNDd2MC40MSAgICBsLTcuNzctNC41M2wtMi4yMiwwLjc3djAuMjZMMTguNzMsMEwwLjg3LDUuNzJ2MS45TDAsNy44OHYyNi41OGwxOC4wNiw1LjkybDEyLjMtNy4xNnYwLjQyaDEuNjVsOC4zNC00Ljg1djAuMTFoMS4yM2w2LjE4LTMuNjYgICAgVjEzLjhMNDcuNzEsMTMuNzV6IE0xOS4zNSwxLjM5bDExLjAxLDYuMDN2MC44MkwxOS4zNSwyLjYzVjEuMzl6IE0xOC43OCw1LjJsMTEuNTgsNC45djEuNjRMMTguNzgsNy41N1Y1LjJ6IE0xOC43OCwxMC4yNSAgICBsMTEuNTgsMy4yNXYxLjU5bC0xMS41OC0yLjM3VjEwLjI1eiBNMTguNzgsMTUuMjVsMTEuNTgsMS43djEuNDlsLTExLjU4LTAuNzJWMTUuMjV6IE0xOC43OCwyMC40NWwxMS41OC0wLjIxdjEuNjVsLTExLjU4LDAuOTMgICAgVjIwLjQ1eiBNMTguNzgsMjUuNWwxMS41OC0xLjg2djEuNmwtMTEuNTgsMi42M1YyNS41eiBNMTguNzgsMzAuNDlsMTEuNTgtMy40djEuNWwtMTEuNTgsNC40M1YzMC40OXogTTE4Ljc4LDM4LjA3VjM1LjcgICAgbDExLjU4LTUuMzF2MS42NUwxOC43OCwzOC4wN3ogTTMyLjk5LDYuNzVsNy4zNiw0LjAydjAuNTFsLTcuMzYtMy43MVY2Ljc1eiBNMzIuNTgsOS4zMmw3Ljc3LDMuMjV2MS4yM2wtNy43Ny0yLjc4VjkuMzJ6ICAgICBNMzIuNTgsMTIuODNsNy43NywyLjIxdjEuMDhsLTcuNzctMS42NVYxMi44M3ogTTMyLjU4LDE2LjI4bDcuNzcsMS4xM3YxLjAzbC03Ljc3LTAuNTFWMTYuMjh6IE0zMi41OCwxOS44M2w3Ljc3LTAuMTV2MS4xOCAgICBsLTcuNzcsMC41N1YxOS44M3ogTTMyLjU4LDIzLjMzbDcuNzctMS4xOHYxLjAzbC03Ljc3LDEuNzVWMjMuMzN6IE0zMi41OCwyNi43OGw3Ljc3LTIuMzZ2MS4xM2wtNy43NywyLjk5VjI2Ljc4eiBNMzIuNTgsMzEuOTQgICAgdi0xLjU1bDcuNzctMy42MXYxLjE0TDMyLjU4LDMxLjk0eiBNNDIuMjUsOS45OWw1LjMsMi45OXYwLjM2bC01LjMtMi43M1Y5Ljk5eiBNNDcuNzEsMjQuNzhsLTUuNzcsMi45OHYtMS4xM2w1Ljc3LTIuNjhWMjQuNzh6ICAgICBNNDcuNzEsMjMuMTNsLTUuNzcsMi4yMXYtMS4yM2w1Ljc3LTEuNzZWMjMuMTN6IE00Ny43MSwyMS41M2wtNS43NywxLjI5di0xLjE5bDUuNzctMC44N1YyMS41M3ogTTQ3LjcxLDE5LjkzbC01Ljc3LDAuNDJ2LTEuMTQgICAgbDUuNzctMC4wNVYxOS45M3ogTTQ3LjcxLDE4LjM0bC01Ljc3LTAuNDF2LTEuMTRsNS43NywwLjc3VjE4LjM0eiBNNDcuNzEsMTYuNjlsLTUuNzctMS4xOXYtMS4xM2w1Ljc3LDEuNTVWMTYuNjl6IE00Ny43MSwxNS4wOSAgICBsLTUuNzctMi4wMVYxMS45bDUuNzcsMi40N1YxNS4wOXoiLz4mI3hhOwk8L2c+JiN4YTs8L2c+JiN4YTs8L3N2Zz4=;fontStyle=1" parent="1" vertex="1">
          <mxGeometry x="147" y="392.33" width="58" height="48.33" as="geometry" />
        </mxCell>
        <mxCell id="0S4KNCLKfGQNIOkUdKm9-16" style="edgeStyle=orthogonalEdgeStyle;rounded=0;orthogonalLoop=1;jettySize=auto;html=1;" parent="1" edge="1">
          <mxGeometry relative="1" as="geometry">
            <mxPoint x="610" y="247.04999999999995" as="targetPoint" />
            <mxPoint x="740" y="247" as="sourcePoint" />
            <Array as="points">
              <mxPoint x="640" y="247" />
              <mxPoint x="640" y="247" />
            </Array>
          </mxGeometry>
        </mxCell>
        <mxCell id="0S4KNCLKfGQNIOkUdKm9-21" value="HTTP Req" style="edgeLabel;html=1;align=center;verticalAlign=middle;resizable=0;points=[];" parent="0S4KNCLKfGQNIOkUdKm9-16" vertex="1" connectable="0">
          <mxGeometry x="0.1538" y="1" relative="1" as="geometry">
            <mxPoint as="offset" />
          </mxGeometry>
        </mxCell>
        <mxCell id="0S4KNCLKfGQNIOkUdKm9-17" value="&lt;b&gt;WBD Application&lt;/b&gt;" style="verticalLabelPosition=bottom;html=1;verticalAlign=top;align=center;strokeColor=none;fillColor=#00BEF2;shape=mxgraph.azure.website_generic;pointerEvents=1;" parent="1" vertex="1">
          <mxGeometry x="899" y="217.83" width="70" height="56.17" as="geometry" />
        </mxCell>
        <mxCell id="0S4KNCLKfGQNIOkUdKm9-20" value="HTTP Req" style="edgeStyle=orthogonalEdgeStyle;rounded=0;orthogonalLoop=1;jettySize=auto;html=1;" parent="1" edge="1">
          <mxGeometry relative="1" as="geometry">
            <mxPoint x="791" y="245.46999999999994" as="targetPoint" />
            <mxPoint x="900" y="245" as="sourcePoint" />
            <Array as="points">
              <mxPoint x="821" y="245.42" />
              <mxPoint x="821" y="245.42" />
            </Array>
          </mxGeometry>
        </mxCell>
        <mxCell id="LtLeKahb4rVX_ZSBuF52-5" value="Oracle Fusion" style="shape=image;html=1;verticalAlign=top;verticalLabelPosition=bottom;labelBackgroundColor=#ffffff;imageAspect=0;aspect=fixed;image=https://cdn2.iconfinder.com/data/icons/whcompare-servers-web-hosting/50/sftp-128.png" vertex="1" parent="1">
          <mxGeometry x="880" y="410" width="41.74" height="41.74" as="geometry" />
        </mxCell>
        <mxCell id="LtLeKahb4rVX_ZSBuF52-6" value="ReconNet" style="shape=image;html=1;verticalAlign=top;verticalLabelPosition=bottom;labelBackgroundColor=#ffffff;imageAspect=0;aspect=fixed;image=https://cdn2.iconfinder.com/data/icons/whcompare-servers-web-hosting/50/sftp-128.png" vertex="1" parent="1">
          <mxGeometry x="880" y="480" width="41.74" height="41.74" as="geometry" />
        </mxCell>
        <mxCell id="LtLeKahb4rVX_ZSBuF52-8" style="edgeStyle=orthogonalEdgeStyle;rounded=0;orthogonalLoop=1;jettySize=auto;html=1;exitX=1;exitY=0.25;exitDx=0;exitDy=0;exitPerimeter=0;" edge="1" parent="1" source="LtLeKahb4rVX_ZSBuF52-7" target="LtLeKahb4rVX_ZSBuF52-5">
          <mxGeometry relative="1" as="geometry" />
        </mxCell>
        <mxCell id="LtLeKahb4rVX_ZSBuF52-9" style="edgeStyle=orthogonalEdgeStyle;rounded=0;orthogonalLoop=1;jettySize=auto;html=1;exitX=1;exitY=0.75;exitDx=0;exitDy=0;exitPerimeter=0;entryX=0;entryY=0.5;entryDx=0;entryDy=0;" edge="1" parent="1" source="LtLeKahb4rVX_ZSBuF52-7" target="LtLeKahb4rVX_ZSBuF52-6">
          <mxGeometry relative="1" as="geometry" />
        </mxCell>
        <mxCell id="LtLeKahb4rVX_ZSBuF52-7" value="" style="sketch=0;points=[[0,0,0],[0.25,0,0],[0.5,0,0],[0.75,0,0],[1,0,0],[0,1,0],[0.25,1,0],[0.5,1,0],[0.75,1,0],[1,1,0],[0,0.25,0],[0,0.5,0],[0,0.75,0],[1,0.25,0],[1,0.5,0],[1,0.75,0]];outlineConnect=0;fontColor=#232F3E;gradientColor=#4AB29A;gradientDirection=north;fillColor=#116D5B;strokeColor=#ffffff;dashed=0;verticalLabelPosition=bottom;verticalAlign=top;align=center;html=1;fontSize=12;fontStyle=0;aspect=fixed;shape=mxgraph.aws4.resourceIcon;resIcon=mxgraph.aws4.transfer_for_sftp;" vertex="1" parent="1">
          <mxGeometry x="620" y="440" width="78" height="78" as="geometry" />
        </mxCell>
        <mxCell id="LtLeKahb4rVX_ZSBuF52-14" style="edgeStyle=orthogonalEdgeStyle;rounded=0;orthogonalLoop=1;jettySize=auto;html=1;exitX=1;exitY=0.5;exitDx=0;exitDy=0;" edge="1" parent="1" source="LtLeKahb4rVX_ZSBuF52-10" target="LtLeKahb4rVX_ZSBuF52-7">
          <mxGeometry relative="1" as="geometry" />
        </mxCell>
        <mxCell id="LtLeKahb4rVX_ZSBuF52-10" value="OracleFusion-FileSource" style="sketch=0;html=1;verticalAlign=top;labelPosition=center;verticalLabelPosition=bottom;align=center;spacingTop=-6;fontSize=11;fontStyle=1;fontColor=#999999;shape=image;aspect=fixed;imageAspect=0;image=data:image/svg+xml,PHN2ZyB4bWxucz0iaHR0cDovL3d3dy53My5vcmcvMjAwMC9zdmciIHhtbG5zOnY9Imh0dHBzOi8vdmVjdGEuaW8vbmFubyIgd2lkdGg9IjQyNCIgaGVpZ2h0PSI0MjQiIHZpZXdCb3g9IjAgMCA0MjQgNDI0Ij4mI3hhOwk8c3R5bGUgdHlwZT0idGV4dC9jc3MiPiYjeGE7CS5zdDB7ZmlsbDojNDI4NWY0O30mI3hhOwk8L3N0eWxlPiYjeGE7CTxwYXRoIGNsYXNzPSJzdDAiIGQ9Ik00MjQgMHY0MjRIMFYwek0yMTIgOTcuODQ2Yy0zNy44ODQgMC03MC4xNjQgMjMuOTktODIuNDc4IDU3LjYwOGgwbC0zLjQwMy4wMDFjLTQyLjYzNCAwLTc3LjE5NiAzNC41NjItNzcuMTk2IDc3LjE5NnMzNC41NjIgNzcuMTk2IDc3LjE5NiA3Ny4xOTZoMCAxNzEuNzYzYzQyLjYzNCAwIDc3LjE5Ni0zNC41NjIgNzcuMTk2LTc3LjE5NnMtMzQuNTYyLTc3LjE5Ni03Ny4xOTYtNzcuMTk2aDBsLTMuNDAzLS4wMDFDMjgyLjE2NCAxMjEuODM3IDI0OS44ODQgOTcuODQ2IDIxMiA5Ny44NDZ6IiBmaWxsLXJ1bGU9ImV2ZW5vZGQiLz4mI3hhOzwvc3ZnPg==;" vertex="1" parent="1">
          <mxGeometry x="390" y="414" width="42" height="42" as="geometry" />
        </mxCell>
        <mxCell id="LtLeKahb4rVX_ZSBuF52-15" style="edgeStyle=orthogonalEdgeStyle;rounded=0;orthogonalLoop=1;jettySize=auto;html=1;exitX=1;exitY=0.5;exitDx=0;exitDy=0;" edge="1" parent="1" source="LtLeKahb4rVX_ZSBuF52-13" target="LtLeKahb4rVX_ZSBuF52-7">
          <mxGeometry relative="1" as="geometry" />
        </mxCell>
        <mxCell id="LtLeKahb4rVX_ZSBuF52-13" value="ReconNet File Source" style="editableCssRules=.*;shape=image;verticalLabelPosition=bottom;labelBackgroundColor=#ffffff;verticalAlign=top;aspect=fixed;imageAspect=0;image=data:image/svg+xml,PHN2ZyB4bWxucz0iaHR0cDovL3d3dy53My5vcmcvMjAwMC9zdmciIHhtbG5zOnY9Imh0dHBzOi8vdmVjdGEuaW8vbmFubyIgd2lkdGg9IjQyNCIgaGVpZ2h0PSI0MjQiIHZpZXdCb3g9IjAgMCA0MjQgNDI0Ij4mI3hhOwk8c3R5bGUgdHlwZT0idGV4dC9jc3MiPiYjeGE7CS5zdDB7ZmlsbDojNDI4NWY0O30mI3hhOwk8L3N0eWxlPiYjeGE7CTxwYXRoIGNsYXNzPSJzdDAiIGQ9Ik00MjQgMHY0MjRIMFYwek0yMTIgOTcuODQ2Yy0zNy44ODQgMC03MC4xNjQgMjMuOTktODIuNDc4IDU3LjYwOGgwbC0zLjQwMy4wMDFjLTQyLjYzNCAwLTc3LjE5NiAzNC41NjItNzcuMTk2IDc3LjE5NnMzNC41NjIgNzcuMTk2IDc3LjE5NiA3Ny4xOTZoMCAxNzEuNzYzYzQyLjYzNCAwIDc3LjE5Ni0zNC41NjIgNzcuMTk2LTc3LjE5NnMtMzQuNTYyLTc3LjE5Ni03Ny4xOTYtNzcuMTk2aDBsLTMuNDAzLS4wMDFDMjgyLjE2NCAxMjEuODM3IDI0OS44ODQgOTcuODQ2IDIxMiA5Ny44NDZ6IiBmaWxsLXJ1bGU9ImV2ZW5vZGQiLz4mI3hhOzwvc3ZnPg==;" vertex="1" parent="1">
          <mxGeometry x="390" y="500" width="41.74" height="41.74" as="geometry" />
        </mxCell>
      </root>
    </mxGraphModel>
  </diagram>
</mxfile>
